<svg id="visual" viewBox="0 0 900 600" width="900" height="600" xmlns="http://www.w3.org/2000/svg" xmlns:xlink="http://www.w3.org/1999/xlink" version="1.1"><rect x="0" y="0" width="900" height="600" fill="#001220"></rect><path d="M0 227L21.5 224.2C43 221.3 86 215.7 128.8 222.7C171.7 229.7 214.3 249.3 257.2 255.3C300 261.3 343 253.7 385.8 251.5C428.7 249.3 471.3 252.7 514.2 271C557 289.3 600 322.7 642.8 321C685.7 319.3 728.3 282.7 771.2 284.2C814 285.7 857 325.3 878.5 345.2L900 365L900 0L878.5 0C857 0 814 0 771.2 0C728.3 0 685.7 0 642.8 0C600 0 557 0 514.2 0C471.3 0 428.7 0 385.8 0C343 0 300 0 257.2 0C214.3 0 171.7 0 128.8 0C86 0 43 0 21.5 0L0 0Z" fill="#673624"></path><path d="M0 246L21.5 256.7C43 267.3 86 288.7 128.8 287.5C171.7 286.3 214.3 262.7 257.2 245C300 227.3 343 215.7 385.8 228.8C428.7 242 471.3 280 514.2 288.8C557 297.7 600 277.3 642.8 270.5C685.7 263.7 728.3 270.3 771.2 267.8C814 265.3 857 253.7 878.5 247.8L900 242L900 0L878.5 0C857 0 814 0 771.2 0C728.3 0 685.7 0 642.8 0C600 0 557 0 514.2 0C471.3 0 428.7 0 385.8 0C343 0 300 0 257.2 0C214.3 0 171.7 0 128.8 0C86 0 43 0 21.5 0L0 0Z" fill="#803d24"></path><path d="M0 150L21.5 164.7C43 179.3 86 208.7 128.8 222.7C171.7 236.7 214.3 235.3 257.2 228.5C300 221.7 343 209.3 385.8 210.2C428.7 211 471.3 225 514.2 235.3C557 245.7 600 252.3 642.8 240C685.7 227.7 728.3 196.3 771.2 194.5C814 192.7 857 220.3 878.5 234.2L900 248L900 0L878.5 0C857 0 814 0 771.2 0C728.3 0 685.7 0 642.8 0C600 0 557 0 514.2 0C471.3 0 428.7 0 385.8 0C343 0 300 0 257.2 0C214.3 0 171.7 0 128.8 0C86 0 43 0 21.5 0L0 0Z" fill="#994522"></path><path d="M0 136L21.5 142C43 148 86 160 128.8 165C171.7 170 214.3 168 257.2 176C300 184 343 202 385.8 199.3C428.7 196.7 471.3 173.3 514.2 157C557 140.7 600 131.3 642.8 139C685.7 146.7 728.3 171.3 771.2 172.8C814 174.3 857 152.7 878.5 141.8L900 131L900 0L878.5 0C857 0 814 0 771.2 0C728.3 0 685.7 0 642.8 0C600 0 557 0 514.2 0C471.3 0 428.7 0 385.8 0C343 0 300 0 257.2 0C214.3 0 171.7 0 128.8 0C86 0 43 0 21.5 0L0 0Z" fill="#b24c1f"></path><path d="M0 170L21.5 164.2C43 158.3 86 146.7 128.8 139.7C171.7 132.7 214.3 130.3 257.2 123.3C300 116.3 343 104.7 385.8 111.5C428.7 118.3 471.3 143.7 514.2 151.5C557 159.3 600 149.7 642.8 147C685.7 144.3 728.3 148.7 771.2 146.2C814 143.7 857 134.3 878.5 129.7L900 125L900 0L878.5 0C857 0 814 0 771.2 0C728.3 0 685.7 0 642.8 0C600 0 557 0 514.2 0C471.3 0 428.7 0 385.8 0C343 0 300 0 257.2 0C214.3 0 171.7 0 128.8 0C86 0 43 0 21.5 0L0 0Z" fill="#cb541a"></path><path d="M0 98L21.5 93.3C43 88.7 86 79.3 128.8 77C171.7 74.7 214.3 79.3 257.2 85.3C300 91.3 343 98.7 385.8 104.2C428.7 109.7 471.3 113.3 514.2 117C557 120.7 600 124.3 642.8 118.8C685.7 113.3 728.3 98.7 771.2 91.2C814 83.7 857 83.3 878.5 83.2L900 83L900 0L878.5 0C857 0 814 0 771.2 0C728.3 0 685.7 0 642.8 0C600 0 557 0 514.2 0C471.3 0 428.7 0 385.8 0C343 0 300 0 257.2 0C214.3 0 171.7 0 128.8 0C86 0 43 0 21.5 0L0 0Z" fill="#e55c12"></path><path d="M0 57L21.5 56.8C43 56.7 86 56.3 128.8 58.3C171.7 60.3 214.3 64.7 257.2 63.7C300 62.7 343 56.3 385.8 53.3C428.7 50.3 471.3 50.7 514.2 52.2C557 53.7 600 56.3 642.8 53C685.7 49.7 728.3 40.3 771.2 44.3C814 48.3 857 65.7 878.5 74.3L900 83L900 0L878.5 0C857 0 814 0 771.2 0C728.3 0 685.7 0 642.8 0C600 0 557 0 514.2 0C471.3 0 428.7 0 385.8 0C343 0 300 0 257.2 0C214.3 0 171.7 0 128.8 0C86 0 43 0 21.5 0L0 0Z" fill="#ff6400"></path></svg>